#!OML:ASF F:\VICON\USERDATA\INSTALL\rory3\rory3.ASF
:FULLY-SPECIFIED
:DEGREES
629
root 0.0631646 16.3923 -0.347717 -160.692 6.10865 178.94
lowerback -15.9311 0.0464829 -3.18474
upperback -4.11942 1.12503 -0.153001
thorax 4.49413 0.765103 1.87867
lowerneck -10.8027 -7.78904 -2.25644
upperneck 42.504 -6.46827 2.49076
head 17.7325 -0.714645 1.04379
rclavicle 8.49339e-015 2.90723e-015
rhumerus -45.2203 6.02771 -87.3887
rradius 20.4816
rwrist -10.5085
rhand -19.947 23.4075
rfingers 7.12502
rthumb 6.39096 -6.47607
lclavicle 8.49339e-015 2.90723e-015
lhumerus -48.8941 11.2164 74.3047
lradius 38.0214
lwrist 6.5507
lhand -3.92971 19.5753
lfingers 7.12502
lthumb 21.8215 48.365
rfemur -18.3669 -12.747 25.1607
rtibia 55.906
rfoot 10.4811 -13.0508
rtoes 10.6986
lfemur -38.8054 2.51187 -33.5803
ltibia 42.5226
lfoot -41.1517 23.652
ltoes 14.7433
630
root 0.0590866 16.3969 -0.359218 -160.633 6.25532 179.038
lowerback -16.0314 0.124004 -3.07903
upperback -4.19745 1.22124 -0.0823487
thorax 4.46083 0.819995 1.91323
lowerneck -10.9367 -7.75559 -2.07428
upperneck 42.489 -6.44077 2.37474
head 17.7385 -0.691236 0.959023
rclavicle -1.42634e-014 3.96638e-015
rhumerus -45.4716 5.69678 -87.1154
rradius 20.6745
rwrist -9.94614
rhand -19.6569 22.7716
rfingers 7.12502
rthumb 6.67099 -7.10334
lclavicle -1.42634e-014 3.96638e-015
lhumerus -49.2483 11.5069 74.1967
lradius 38.0147
lwrist 6.23069
lhand -3.53305 20.3085
lfingers 7.12502
lthumb 22.2023 49.0533
rfemur -18.4597 -12.5845 25.2066
rtibia 55.973
rfoot 10.6604 -12.9398
rtoes 9.39793
lfemur -38.7408 2.45472 -33.4702
ltibia 42.3686
lfoot -41.2867 23.6545
ltoes 14.9874
631
root 0.0458783 16.3928 -0.382276 -160.578 6.44157 179.023
lowerback -16.3399 0.217232 -2.93836
upperback -4.17753 1.33822 -0.0789848
thorax 4.64446 0.877364 1.86749
lowerneck -11.4238 -7.73744 -1.88648
upperneck 42.6307 -6.45903 2.2824
head 17.9359 -0.675425 0.872931
rclavicle -9.08663e-015 9.51682e-015
rhumerus -45.453 5.42038 -86.8838
rradius 20.5962
rwrist -9.41693
rhand -19.6224 22.11
rfingers 7.12502
rthumb 6.70434 -7.76382
lclavicle -9.08663e-015 9.51682e-015
lhumerus -49.4163 11.7501 74.1336
lradius 37.7153
lwrist 6.06329
lhand -3.26082 20.6382
lfingers 7.12502
lthumb 22.4636 49.3518
rfemur -18.4007 -12.7003 24.985
rtibia 56.0307
rfoot 10.8118 -12.5425
rtoes 8.45227
lfemur -38.6012 2.55185 -33.5937
ltibia 42.2044
lfoot -41.3466 23.494
ltoes 14.8642
632
root 0.0369436 16.3884 -0.390629 -160.693 6.59824 178.754
lowerback -16.2111 0.214391 -3.163
upperback -4.22116 1.36776 -0.0671112
thorax 4.52219 0.894112 2.00923
lowerneck -11.0309 -7.76091 -2.39414
upperneck 42.1264 -6.68189 2.85864
head 17.6097 -0.816068 1.17554
rclavicle -6.69035e-015 1.63997e-015
rhumerus -45.4818 5.41216 -86.7382
rradius 20.3068
rwrist -9.21498
rhand -19.8737 22.4697
rfingers 7.12502
rthumb 6.46178 -7.41177
lclavicle -6.69035e-015 1.63997e-015
lhumerus -49.5401 12.0734 74.0988
lradius 36.94
lwrist 5.71149
lhand -3.15812 20.3506
lfingers 7.12502
lthumb 22.5622 49.0522
rfemur -18.2649 -12.769 24.5704
rtibia 56.0848
rfoot 10.9546 -12.4135
rtoes 8.36672
lfemur -38.3993 2.66466 -33.9421
ltibia 42.0769
lfoot -41.4116 23.4767
ltoes 14.3213
633
root 0.0325586 16.3935 -0.38434 -160.852 6.50001 178.681
lowerback -15.7397 0.179626 -3.25227
upperback -4.34904 1.31549 0.0130871
thorax 4.13255 0.878628 2.12093
lowerneck -11.1173 -7.6022 -1.91195
upperneck 42.3565 -6.30288 2.40241
head 17.6937 -0.6137 0.959224
rclavicle -4.06266e-015 5.36719e-015
rhumerus -45.6788 5.16981 -86.4979
rradius 20.1136
rwrist -8.99262
rhand -20.0675 23.4088
rfingers 7.12502
rthumb 6.27467 -6.47829
lclavicle -4.06266e-015 5.36719e-015
lhumerus -49.8048 12.239 74.0535
lradius 36.432
lwrist 5.40549
lhand -3.13679 19.8312
lfingers 7.12502
lthumb 22.5827 48.5303
rfemur -18.2167 -12.8236 24.5451
rtibia 56.1002
rfoot 11.2942 -12.5552
rtoes 7.84099
lfemur -38.2346 2.73931 -33.9981
ltibia 41.9917
lfoot -41.1261 23.6811
ltoes 13.5443
634
root 0.0229867 16.3968 -0.382085 -160.841 6.30233 178.817
lowerback -15.4749 0.163839 -2.99035
upperback -4.55414 1.25628 0.123986
thorax 3.78017 0.868548 2.06939
lowerneck -11.1708 -7.49445 -1.60806
upperneck 42.5328 -6.01561 2.05953
head 17.7636 -0.467503 0.807747
rclavicle -6.21202e-017 -1.0138e-014
rhumerus -45.912 4.70195 -86.1024
rradius 20.0504
rwrist -8.67831
rhand -19.6735 23.4049
rfingers 7.12502
rthumb 6.65502 -6.47049
lclavicle -6.21202e-017 -1.0138e-014
lhumerus -50.2121 12.3618 73.9701
lradius 36.1074
lwrist 5.33351
lhand -2.96301 19.3778
lfingers 7.12502
lthumb 22.7495 48.0565
rfemur -18.2054 -13.0315 24.7361
rtibia 56.0361
rfoot 11.4828 -12.3423
rtoes 6.46605
lfemur -38.2066 2.5869 -33.7885
ltibia 41.9675
lfoot -41.1908 23.4563
ltoes 13.4474
635
root 0.0151813 16.4 -0.391508 -160.811 6.27468 178.981
lowerback -15.3137 0.168876 -2.74348
upperback -4.83194 1.24678 0.229137
thorax 3.40429 0.88933 2.03082
lowerneck -10.7543 -7.4515 -1.54628
upperneck 42.4791 -5.86497 1.96229
head 17.6076 -0.394572 0.790496
rclavicle -1.27719e-014 -6.85807e-015
rhumerus -46.2258 4.3154 -85.7677
rradius 19.7595
rwrist -8.37276
rhand -19.2751 22.8502
rfingers 7.12502
rthumb 7.03958 -7.01275
lclavicle -1.27719e-014 -6.85807e-015
lhumerus -50.7763 12.496 73.8256
lradius 35.7095
lwrist 5.29413
lhand -2.87177 19.2465
lfingers 7.12502
lthumb 22.837 47.9145
rfemur -18.103 -13.0903 24.875
rtibia 55.9146
rfoot 11.4526 -12.281
rtoes 7.05566
lfemur -38.195 2.54199 -33.5839
ltibia 41.9755
lfoot -41.3845 23.2099
ltoes 13.7317
636
root 0.00800928 16.4036 -0.410951 -160.786 6.1348 179.17
lowerback -15.3277 0.157033 -2.46217
upperback -5.01348 1.20947 0.377186
thorax 3.22486 0.888261 2.0184
lowerneck -10.5874 -7.4212 -1.57624
upperneck 42.5495 -5.7181 1.89314
head 17.5992 -0.327902 0.800391
rclavicle -1.00076e-014 9.93923e-016
rhumerus -46.4921 4.20017 -85.5575
rradius 19.5296
rwrist -8.36416
rhand -18.9327 22.5607
rfingers 7.12502
rthumb 7.3701 -7.29091
lclavicle -1.00076e-014 9.93923e-016
lhumerus -51.1859 12.7923 73.6791
lradius 35.0294
lwrist 4.96439
lhand -2.96398 18.7368
lfingers 7.12502
lthumb 22.7485 47.4157
rfemur -17.984 -13.2382 25.0451
rtibia 55.7686
rfoot 11.698 -12.4735
rtoes 8.29791
lfemur -38.1509 2.72013 -33.4449
ltibia 41.9665
lfoot -41.0198 23.4658
ltoes 12.9063
637
root -0.0014215 16.4052 -0.427029 -160.775 5.95902 179.19
lowerback -15.5078 0.151252 -2.26683
upperback -4.99058 1.18025 0.392442
thorax 3.35015 0.872793 1.92342
lowerneck -10.8091 -7.36054 -1.42013
upperneck 42.5747 -5.68332 1.89077
head 17.6624 -0.288291 0.774191
rclavicle -1.59338e-014 -3.97569e-015
rhumerus -46.3546 3.49175 -85.0616
rradius 19.3676
rwrist -7.8621
rhand -18.3796 22.5788
rfingers 7.12502
rthumb 7.90395 -7.25347
lclavicle -1.59338e-014 -3.97569e-015
lhumerus -51.2156 12.924 73.6258
lradius 34.4101
lwrist 4.69121
lhand -3.04321 18.182
lfingers 7.12502
lthumb 22.6725 46.8702
rfemur -17.9325 -13.5099 25.0275
rtibia 55.6464
rfoot 11.8109 -12.8188
rtoes 9.73912
lfemur -38.0705 2.92241 -33.5162
ltibia 41.9254
lfoot -40.6194 23.4861
ltoes 12.4168
